<svg width="300" height="300" viewBox="0 0 300 300" fill="none" xmlns="http://www.w3.org/2000/svg">
<path d="M205 29.8021C240.899 29.8021 270 58.9036 270 94.8021V164.802C270 200.701 240.899 229.802 205 229.802H95C91.6841 229.802 88.437 230.995 86.1611 233.407L55.9092 265.463C46.5927 275.335 30 268.741 30 255.167V94.8021C30 58.9036 59.1015 29.8021 95 29.8021H205ZM87.5 156.802C80.5964 156.802 75 162.399 75 169.302C75 176.206 80.5964 181.802 87.5 181.802H152.5C159.404 181.802 165 176.206 165 169.302C165 162.399 159.404 156.802 152.5 156.802H87.5ZM87.5 116.802C80.5964 116.802 75 122.399 75 129.302C75 136.206 80.5964 141.802 87.5 141.802H182.5C189.404 141.802 195 136.206 195 129.302C195 122.399 189.404 116.802 182.5 116.802H87.5ZM87.5 76.8021C80.5964 76.8021 75 82.3985 75 89.3021C75 96.2056 80.5964 101.802 87.5 101.802H212.5C219.404 101.802 225 96.2056 225 89.3021C225 82.3985 219.404 76.8021 212.5 76.8021H87.5Z" fill="#8760F7"/>
</svg>
