<svg width="1391" height="300" viewBox="0 0 1391 300" fill="none" xmlns="http://www.w3.org/2000/svg">
<path d="M205 29.8021C240.899 29.8021 270 58.9036 270 94.8021V164.802C270 200.701 240.899 229.802 205 229.802H95C91.6841 229.802 88.437 230.995 86.1611 233.407L55.9092 265.463C46.5927 275.335 30 268.741 30 255.167V94.8021C30 58.9036 59.1015 29.8021 95 29.8021H205ZM87.5 156.802C80.5964 156.802 75 162.399 75 169.302C75 176.206 80.5964 181.802 87.5 181.802H152.5C159.404 181.802 165 176.206 165 169.302C165 162.399 159.404 156.802 152.5 156.802H87.5ZM87.5 116.802C80.5964 116.802 75 122.399 75 129.302C75 136.206 80.5964 141.802 87.5 141.802H182.5C189.404 141.802 195 136.206 195 129.302C195 122.399 189.404 116.802 182.5 116.802H87.5ZM87.5 76.8021C80.5964 76.8021 75 82.3985 75 89.3021C75 96.2056 80.5964 101.802 87.5 101.802H212.5C219.404 101.802 225 96.2056 225 89.3021C225 82.3985 219.404 76.8021 212.5 76.8021H87.5Z" fill="#8B68FD"/>
<path d="M330.287 66.7919V39.1818H475.351V66.7919H419.154V221H386.484V66.7919H330.287ZM534.033 141.099V221H501.896V39.1818H533.323V107.808H534.921C538.117 100.113 543.059 94.0469 549.747 89.608C556.494 85.1098 565.076 82.8608 575.493 82.8608C584.963 82.8608 593.219 84.8435 600.262 88.8089C607.305 92.7744 612.75 98.5746 616.597 106.21C620.504 113.844 622.457 123.166 622.457 134.175V221H590.319V139.146C590.319 129.973 587.951 122.841 583.217 117.751C578.541 112.602 571.971 110.027 563.508 110.027C557.826 110.027 552.736 111.27 548.238 113.756C543.799 116.182 540.307 119.704 537.762 124.32C535.276 128.937 534.033 134.53 534.033 141.099ZM655.216 221V84.6364H686.377V107.364H687.798C690.283 99.492 694.545 93.4254 700.582 89.1641C706.678 84.8435 713.632 82.6832 721.445 82.6832C723.22 82.6832 725.203 82.772 727.393 82.9496C729.642 83.0679 731.506 83.2751 732.986 83.571V113.134C731.625 112.661 729.464 112.246 726.505 111.891C723.605 111.477 720.794 111.27 718.071 111.27C712.212 111.27 706.944 112.542 702.268 115.087C697.652 117.573 694.012 121.036 691.349 125.474C688.685 129.913 687.354 135.033 687.354 140.833V221H655.216ZM809.091 223.663C795.419 223.663 783.612 220.822 773.669 215.141C763.785 209.4 756.179 201.291 750.852 190.815C745.526 180.28 742.862 167.881 742.862 153.617C742.862 139.59 745.526 127.28 750.852 116.685C756.238 106.032 763.755 97.746 773.402 91.8274C783.049 85.8497 794.383 82.8608 807.404 82.8608C815.809 82.8608 823.74 84.2221 831.197 86.9446C838.713 89.6079 845.342 93.7509 851.083 99.3736C856.883 104.996 861.441 112.158 864.755 120.858C868.07 129.499 869.727 139.797 869.727 151.753V161.607H757.955V139.945H838.921C838.861 133.79 837.53 128.315 834.926 123.521C832.321 118.668 828.682 114.851 824.006 112.069C819.389 109.287 814.003 107.896 807.848 107.896C801.279 107.896 795.508 109.494 790.536 112.69C785.565 115.827 781.688 119.97 778.906 125.119C776.184 130.209 774.793 135.802 774.734 141.898V160.808C774.734 168.739 776.184 175.545 779.084 181.227C781.984 186.85 786.038 191.17 791.247 194.189C796.455 197.148 802.551 198.628 809.535 198.628C814.211 198.628 818.442 197.977 822.23 196.675C826.018 195.313 829.303 193.331 832.085 190.727C834.866 188.122 836.968 184.897 838.388 181.05L868.395 184.423C866.501 192.354 862.891 199.279 857.564 205.197C852.297 211.057 845.549 215.614 837.323 218.869C829.096 222.065 819.685 223.663 809.091 223.663ZM936.155 223.752C927.514 223.752 919.731 222.213 912.806 219.136C905.941 215.999 900.496 211.382 896.471 205.286C892.506 199.19 890.523 191.674 890.523 182.737C890.523 175.042 891.944 168.68 894.784 163.649C897.625 158.618 901.502 154.594 906.414 151.575C911.327 148.557 916.861 146.278 923.016 144.739C929.23 143.141 935.652 141.987 942.281 141.277C950.271 140.448 956.752 139.709 961.723 139.058C966.695 138.347 970.305 137.282 972.554 135.862C974.863 134.382 976.017 132.103 976.017 129.026V128.493C976.017 121.805 974.034 116.626 970.069 112.957C966.103 109.287 960.392 107.452 952.934 107.452C945.063 107.452 938.819 109.169 934.202 112.602C929.645 116.034 926.567 120.089 924.969 124.764L894.962 120.503C897.329 112.217 901.236 105.292 906.681 99.7287C912.126 94.1061 918.784 89.9039 926.656 87.1222C934.528 84.2813 943.228 82.8608 952.757 82.8608C959.326 82.8608 965.866 83.6302 972.377 85.169C978.887 86.7079 984.835 89.2528 990.221 92.804C995.607 96.2959 999.928 101.06 1003.18 107.097C1006.5 113.134 1008.15 120.68 1008.15 129.736V221H977.26V202.268H976.194C974.241 206.056 971.489 209.607 967.938 212.921C964.446 216.176 960.037 218.81 954.71 220.822C949.442 222.776 943.257 223.752 936.155 223.752ZM944.5 200.137C950.952 200.137 956.545 198.865 961.279 196.32C966.014 193.715 969.654 190.283 972.199 186.021C974.803 181.76 976.105 177.114 976.105 172.083V156.014C975.099 156.843 973.383 157.612 970.956 158.322C968.589 159.033 965.926 159.654 962.966 160.187C960.007 160.719 957.077 161.193 954.177 161.607C951.277 162.022 948.762 162.377 946.631 162.673C941.837 163.324 937.546 164.389 933.758 165.869C929.97 167.348 926.981 169.42 924.792 172.083C922.602 174.687 921.507 178.061 921.507 182.204C921.507 188.122 923.667 192.591 927.988 195.609C932.308 198.628 937.812 200.137 944.5 200.137ZM1091.07 223.397C1080.36 223.397 1070.77 220.645 1062.31 215.141C1053.85 209.636 1047.16 201.646 1042.25 191.17C1037.33 180.695 1034.88 167.97 1034.88 152.996C1034.88 137.844 1037.36 125.06 1042.33 114.643C1047.36 104.168 1054.14 96.2663 1062.66 90.9396C1071.19 85.5537 1080.69 82.8608 1091.16 82.8608C1099.15 82.8608 1105.72 84.2221 1110.87 86.9446C1116.02 89.6079 1120.1 92.8336 1123.12 96.6214C1126.14 100.35 1128.48 103.872 1130.14 107.186H1131.47V39.1818H1163.69V221H1132.09V199.516H1130.14C1128.48 202.83 1126.08 206.352 1122.94 210.08C1119.81 213.75 1115.67 216.887 1110.52 219.491C1105.37 222.095 1098.89 223.397 1091.07 223.397ZM1100.04 197.03C1106.85 197.03 1112.65 195.195 1117.44 191.526C1122.23 187.797 1125.87 182.618 1128.36 175.989C1130.85 169.361 1132.09 161.637 1132.09 152.818C1132.09 144 1130.85 136.335 1128.36 129.825C1125.93 123.314 1122.32 118.254 1117.53 114.643C1112.79 111.033 1106.96 109.228 1100.04 109.228C1092.88 109.228 1086.9 111.092 1082.11 114.821C1077.31 118.55 1073.7 123.699 1071.28 130.268C1068.85 136.838 1067.64 144.355 1067.64 152.818C1067.64 161.341 1068.85 168.946 1071.28 175.634C1073.76 182.263 1077.4 187.501 1082.2 191.348C1087.05 195.136 1093 197.03 1100.04 197.03ZM1230.08 39.1818V221H1197.94V39.1818H1230.08ZM1283.1 272.136C1278.72 272.136 1274.67 271.781 1270.94 271.071C1267.27 270.42 1264.34 269.651 1262.15 268.763L1269.61 243.727C1274.28 245.089 1278.46 245.74 1282.12 245.68C1285.79 245.621 1289.02 244.467 1291.8 242.218C1294.64 240.028 1297.04 236.359 1298.99 231.21L1301.74 223.841L1252.3 84.6364H1286.39L1317.81 187.619H1319.23L1350.75 84.6364H1384.93L1330.33 237.513C1327.79 244.733 1324.41 250.918 1320.21 256.067C1316.01 261.276 1310.86 265.241 1304.76 267.964C1298.73 270.746 1291.51 272.136 1283.1 272.136Z" fill="black"/>
</svg>
